<svg xmlns="http://www.w3.org/2000/svg" viewBox="0 0 100 100" preserveAspectRatio="xMidYMid" width="200" height="200" style="shape-rendering: auto; display: block; background: transparent;" xmlns:xlink="http://www.w3.org/1999/xlink"><g><g transform="rotate(0 50 50)">
  <rect fill="#e2b920" height="21" width="1" ry="10.5" rx="0.5" y="2.5" x="49.5">
    <animate repeatCount="indefinite" begin="-0.9629629629629629s" dur="1s" keyTimes="0;1" values="1;0" attributeName="opacity"></animate>
  </rect>
</g><g transform="rotate(13.333333333333334 50 50)">
  <rect fill="#e2b920" height="21" width="1" ry="10.5" rx="0.5" y="2.5" x="49.5">
    <animate repeatCount="indefinite" begin="-0.9259259259259259s" dur="1s" keyTimes="0;1" values="1;0" attributeName="opacity"></animate>
  </rect>
</g><g transform="rotate(26.666666666666668 50 50)">
  <rect fill="#e2b920" height="21" width="1" ry="10.5" rx="0.5" y="2.5" x="49.5">
    <animate repeatCount="indefinite" begin="-0.8888888888888888s" dur="1s" keyTimes="0;1" values="1;0" attributeName="opacity"></animate>
  </rect>
</g><g transform="rotate(40 50 50)">
  <rect fill="#e2b920" height="21" width="1" ry="10.5" rx="0.5" y="2.5" x="49.5">
    <animate repeatCount="indefinite" begin="-0.8518518518518519s" dur="1s" keyTimes="0;1" values="1;0" attributeName="opacity"></animate>
  </rect>
</g><g transform="rotate(53.333333333333336 50 50)">
  <rect fill="#e2b920" height="21" width="1" ry="10.5" rx="0.5" y="2.5" x="49.5">
    <animate repeatCount="indefinite" begin="-0.8148148148148148s" dur="1s" keyTimes="0;1" values="1;0" attributeName="opacity"></animate>
  </rect>
</g><g transform="rotate(66.66666666666667 50 50)">
  <rect fill="#e2b920" height="21" width="1" ry="10.5" rx="0.5" y="2.5" x="49.5">
    <animate repeatCount="indefinite" begin="-0.7777777777777778s" dur="1s" keyTimes="0;1" values="1;0" attributeName="opacity"></animate>
  </rect>
</g><g transform="rotate(80 50 50)">
  <rect fill="#e2b920" height="21" width="1" ry="10.5" rx="0.5" y="2.5" x="49.5">
    <animate repeatCount="indefinite" begin="-0.7407407407407407s" dur="1s" keyTimes="0;1" values="1;0" attributeName="opacity"></animate>
  </rect>
</g><g transform="rotate(93.33333333333333 50 50)">
  <rect fill="#e2b920" height="21" width="1" ry="10.5" rx="0.5" y="2.5" x="49.5">
    <animate repeatCount="indefinite" begin="-0.7037037037037037s" dur="1s" keyTimes="0;1" values="1;0" attributeName="opacity"></animate>
  </rect>
</g><g transform="rotate(106.66666666666667 50 50)">
  <rect fill="#e2b920" height="21" width="1" ry="10.5" rx="0.5" y="2.5" x="49.5">
    <animate repeatCount="indefinite" begin="-0.6666666666666666s" dur="1s" keyTimes="0;1" values="1;0" attributeName="opacity"></animate>
  </rect>
</g><g transform="rotate(120 50 50)">
  <rect fill="#e2b920" height="21" width="1" ry="10.5" rx="0.5" y="2.5" x="49.5">
    <animate repeatCount="indefinite" begin="-0.6296296296296297s" dur="1s" keyTimes="0;1" values="1;0" attributeName="opacity"></animate>
  </rect>
</g><g transform="rotate(133.33333333333334 50 50)">
  <rect fill="#e2b920" height="21" width="1" ry="10.5" rx="0.5" y="2.5" x="49.5">
    <animate repeatCount="indefinite" begin="-0.5925925925925926s" dur="1s" keyTimes="0;1" values="1;0" attributeName="opacity"></animate>
  </rect>
</g><g transform="rotate(146.66666666666666 50 50)">
  <rect fill="#e2b920" height="21" width="1" ry="10.5" rx="0.5" y="2.5" x="49.5">
    <animate repeatCount="indefinite" begin="-0.5555555555555556s" dur="1s" keyTimes="0;1" values="1;0" attributeName="opacity"></animate>
  </rect>
</g><g transform="rotate(160 50 50)">
  <rect fill="#e2b920" height="21" width="1" ry="10.5" rx="0.5" y="2.5" x="49.5">
    <animate repeatCount="indefinite" begin="-0.5185185185185185s" dur="1s" keyTimes="0;1" values="1;0" attributeName="opacity"></animate>
  </rect>
</g><g transform="rotate(173.33333333333334 50 50)">
  <rect fill="#e2b920" height="21" width="1" ry="10.5" rx="0.5" y="2.5" x="49.5">
    <animate repeatCount="indefinite" begin="-0.48148148148148145s" dur="1s" keyTimes="0;1" values="1;0" attributeName="opacity"></animate>
  </rect>
</g><g transform="rotate(186.66666666666666 50 50)">
  <rect fill="#e2b920" height="21" width="1" ry="10.5" rx="0.5" y="2.5" x="49.5">
    <animate repeatCount="indefinite" begin="-0.4444444444444444s" dur="1s" keyTimes="0;1" values="1;0" attributeName="opacity"></animate>
  </rect>
</g><g transform="rotate(200 50 50)">
  <rect fill="#e2b920" height="21" width="1" ry="10.5" rx="0.5" y="2.5" x="49.5">
    <animate repeatCount="indefinite" begin="-0.4074074074074074s" dur="1s" keyTimes="0;1" values="1;0" attributeName="opacity"></animate>
  </rect>
</g><g transform="rotate(213.33333333333334 50 50)">
  <rect fill="#e2b920" height="21" width="1" ry="10.5" rx="0.5" y="2.5" x="49.5">
    <animate repeatCount="indefinite" begin="-0.37037037037037035s" dur="1s" keyTimes="0;1" values="1;0" attributeName="opacity"></animate>
  </rect>
</g><g transform="rotate(226.66666666666666 50 50)">
  <rect fill="#e2b920" height="21" width="1" ry="10.5" rx="0.5" y="2.5" x="49.5">
    <animate repeatCount="indefinite" begin="-0.3333333333333333s" dur="1s" keyTimes="0;1" values="1;0" attributeName="opacity"></animate>
  </rect>
</g><g transform="rotate(240 50 50)">
  <rect fill="#e2b920" height="21" width="1" ry="10.5" rx="0.5" y="2.5" x="49.5">
    <animate repeatCount="indefinite" begin="-0.2962962962962963s" dur="1s" keyTimes="0;1" values="1;0" attributeName="opacity"></animate>
  </rect>
</g><g transform="rotate(253.33333333333334 50 50)">
  <rect fill="#e2b920" height="21" width="1" ry="10.5" rx="0.5" y="2.5" x="49.5">
    <animate repeatCount="indefinite" begin="-0.25925925925925924s" dur="1s" keyTimes="0;1" values="1;0" attributeName="opacity"></animate>
  </rect>
</g><g transform="rotate(266.6666666666667 50 50)">
  <rect fill="#e2b920" height="21" width="1" ry="10.5" rx="0.5" y="2.5" x="49.5">
    <animate repeatCount="indefinite" begin="-0.2222222222222222s" dur="1s" keyTimes="0;1" values="1;0" attributeName="opacity"></animate>
  </rect>
</g><g transform="rotate(280 50 50)">
  <rect fill="#e2b920" height="21" width="1" ry="10.5" rx="0.5" y="2.5" x="49.5">
    <animate repeatCount="indefinite" begin="-0.18518518518518517s" dur="1s" keyTimes="0;1" values="1;0" attributeName="opacity"></animate>
  </rect>
</g><g transform="rotate(293.3333333333333 50 50)">
  <rect fill="#e2b920" height="21" width="1" ry="10.5" rx="0.5" y="2.5" x="49.5">
    <animate repeatCount="indefinite" begin="-0.14814814814814814s" dur="1s" keyTimes="0;1" values="1;0" attributeName="opacity"></animate>
  </rect>
</g><g transform="rotate(306.6666666666667 50 50)">
  <rect fill="#e2b920" height="21" width="1" ry="10.5" rx="0.5" y="2.5" x="49.5">
    <animate repeatCount="indefinite" begin="-0.1111111111111111s" dur="1s" keyTimes="0;1" values="1;0" attributeName="opacity"></animate>
  </rect>
</g><g transform="rotate(320 50 50)">
  <rect fill="#e2b920" height="21" width="1" ry="10.5" rx="0.5" y="2.5" x="49.5">
    <animate repeatCount="indefinite" begin="-0.07407407407407407s" dur="1s" keyTimes="0;1" values="1;0" attributeName="opacity"></animate>
  </rect>
</g><g transform="rotate(333.3333333333333 50 50)">
  <rect fill="#e2b920" height="21" width="1" ry="10.5" rx="0.5" y="2.5" x="49.5">
    <animate repeatCount="indefinite" begin="-0.037037037037037035s" dur="1s" keyTimes="0;1" values="1;0" attributeName="opacity"></animate>
  </rect>
</g><g transform="rotate(346.6666666666667 50 50)">
  <rect fill="#e2b920" height="21" width="1" ry="10.5" rx="0.5" y="2.5" x="49.5">
    <animate repeatCount="indefinite" begin="0s" dur="1s" keyTimes="0;1" values="1;0" attributeName="opacity"></animate>
  </rect>
</g><g></g></g><!-- [ldio] generated by https://loading.io --></svg>